<?xml version="1.0" encoding="UTF-8"?>
<svg id="Layer_1" data-name="Layer 1" xmlns="http://www.w3.org/2000/svg" version="1.1" viewBox="0 0 140 52">
  <defs>
    <style>
      .cls-1 {
        fill-rule: evenodd;
      }

      .cls-1, .cls-2 {
        fill: #fff;
        stroke-width: 0px;
      }
    </style>
  </defs>
  <path class="cls-1" d="M0,16.4h0c0,.1,29.8,13.9,29.8,13.9l29.9-13.8h0S29.8,2.6,29.8,2.6L0,16.4ZM10.7,16.4L29.8,7.6l19,8.8-19,8.8s-19-8.8-19-8.8ZM29.8,35.6L0,22.1v5l29.8,13.6,29.9-13.6v-5l-29.9,13.6ZM29.8,45.8L0,32.2v5l29.8,13.6,29.9-13.6v-5l-29.9,13.6Z"/>
  <g>
    <path class="cls-2" d="M93,22.8h-5.4v-8.1h-6.3v8.1h-5.4V2.8h5.4v7.4h6.3V2.8h5.4v20Z"/>
    <path class="cls-2" d="M96.9,3.4c0-.8.2-1.4.7-1.8.4-.4,1.2-.6,2.2-.6s1.7.2,2.2.6c.5.4.7,1,.7,1.8,0,1.6-1,2.4-2.9,2.4s-2.8-.8-2.8-2.4ZM102.4,22.8h-5.3V7.3h5.3v15.5Z"/>
    <path class="cls-2" d="M120.7,7.3v2.6l-2.1.8c.3.5.4,1.1.4,1.8,0,1.7-.6,3-1.8,3.9-1.2.9-2.9,1.4-5.2,1.4s-1,0-1.4-.1c-.1.2-.2.5-.2.7s.2.5.6.6c.4.1,1,.2,1.7.2h2.6c3.5,0,5.2,1.5,5.2,4.4s-.8,3.4-2.4,4.4-3.9,1.6-6.8,1.6-3.9-.4-5.1-1.1-1.8-1.8-1.8-3.2,1.1-3,3.4-3.6c-.5-.2-.9-.5-1.2-1-.4-.4-.5-.9-.5-1.3s.1-.9.4-1.3.8-.8,1.7-1.3c-.8-.4-1.4-.9-1.9-1.7-.5-.8-.7-1.7-.7-2.8,0-1.7.6-3,1.7-3.9s2.8-1.4,4.9-1.4.8,0,1.5,0c.7,0,1.2.1,1.5.2h5.4ZM109.1,24.7c0,.4.2.8.7,1.1s1.1.4,1.9.4c1.3,0,2.3-.2,3.1-.5s1.2-.7,1.2-1.3-.2-.7-.7-.9-1.2-.3-2-.3h-2.1c-.6,0-1.1.1-1.5.4s-.6.6-.6,1ZM110.7,12.4c0,1.6.6,2.4,1.7,2.4s.9-.2,1.2-.6c.3-.4.4-1,.4-1.8,0-1.6-.5-2.4-1.6-2.4s-1.7.8-1.7,2.4Z"/>
    <path class="cls-2" d="M132.8,22.8v-8.4c0-2.1-.6-3.1-1.8-3.1s-1.5.4-1.9,1.1c-.4.7-.6,2-.6,3.7v6.8h-5.3V1.5h5.3v3c0,1.4,0,2.9-.2,4.7h.2c.5-.8,1.1-1.4,1.8-1.7s1.5-.5,2.4-.5c1.7,0,3.1.5,4,1.5s1.4,2.4,1.4,4.2v10.1h-5.4Z"/>
    <path class="cls-2" d="M81.2,50.8h-5.3v-20h11.8v4.3h-6.5v3.8h6v4.3h-6v7.5Z"/>
    <path class="cls-2" d="M90.5,31.4c0-.8.2-1.4.7-1.8.4-.4,1.2-.6,2.2-.6s1.7.2,2.2.6c.5.4.7,1,.7,1.8,0,1.6-1,2.4-2.9,2.4s-2.8-.8-2.8-2.4ZM96,50.8h-5.3v-15.5h5.3v15.5Z"/>
    <path class="cls-2" d="M105.1,50.8h-5.3v-21.3h5.3v21.3Z"/>
    <path class="cls-2" d="M116.3,51c-2.6,0-4.6-.7-6-2.1-1.4-1.4-2.1-3.3-2.1-5.9s.7-4.6,2-6c1.3-1.4,3.2-2.1,5.7-2.1s4.1.6,5.4,1.8,1.9,3,1.9,5.3v2.4h-9.6c0,.9.4,1.5,1,2s1.4.7,2.4.7,1.8,0,2.6-.3,1.6-.5,2.6-.9v3.8c-.8.4-1.7.7-2.6.9s-2,.2-3.2.2ZM116,38.6c-.6,0-1.2.2-1.6.6s-.7,1-.7,1.9h4.6c0-.7-.2-1.3-.6-1.8-.4-.4-1-.7-1.6-.7Z"/>
  </g>
</svg>